<?xml version="1.0" encoding="UTF-8" standalone="no"?><!DOCTYPE svg PUBLIC "-//W3C//DTD SVG 1.1//EN" "http://www.w3.org/Graphics/SVG/1.1/DTD/svg11.dtd"><svg width="100%" height="100%" viewBox="0 0 163 103" version="1.1" xmlns="http://www.w3.org/2000/svg" xmlns:xlink="http://www.w3.org/1999/xlink" xml:space="preserve" xmlns:serif="http://www.serif.com/" style="fill-rule:evenodd;clip-rule:evenodd;stroke-linejoin:round;stroke-miterlimit:1.41421;"><path d="M14.415,82.817c0,4.979 -2.349,6.859 -7.516,6.577l0,13.529c14.845,0.846 21.61,-5.449 21.61,-20.106l0,-35.168l-7.243,3.627l-6.851,-3.627l0,35.168Zm92.077,-33.261c0,-1.691 1.504,-2.631 3.947,-2.631c3.1,0 4.979,1.692 6.295,4.134l12.026,-6.483c-3.946,-6.67 -10.711,-10.053 -18.321,-10.053c-9.772,0 -18.416,5.168 -18.416,15.409c0,16.254 23.113,13.53 23.113,18.697c0,1.879 -1.691,2.913 -5.073,2.913c-4.134,0 -6.765,-1.973 -7.987,-5.543l-12.214,6.952c3.664,7.611 10.805,11.181 20.201,11.181c10.147,0 19.543,-4.604 19.543,-15.409c0,-17.382 -23.114,-13.811 -23.114,-19.167Zm-23.207,33.261l-14.093,0l0,-4.416c-2.537,3.476 -7.235,5.731 -13.436,5.731c-9.49,0 -17.57,-6.765 -17.57,-19.449l0,-21.691l14.094,-7.153l0,26.777c0,5.825 3.664,8.55 8.174,8.55c5.167,0 8.738,-3.006 8.738,-9.677l0,-25.65l14.093,0l0,46.978Zm69.81,-46.978l9.677,0l0,13.529l-9.677,0l0,16.631c0,4.04 3.476,4.415 9.677,4.04l0,12.778c-18.415,1.879 -23.771,-3.665 -23.771,-16.818l0,-16.631l-7.516,0l0,-13.529l7.516,0l0,-8.926l14.094,-7.758l0,16.684Zm-129.986,-11.654l0,17.763l21.266,-10.633l0,-17.82l-21.266,10.69Zm-1.843,0.002l0,17.761l-21.266,-10.631l0,-17.822l21.266,10.692Zm7.242,-20.393l3.261,1.63c0.385,-0.036 0.778,-0.055 1.178,-0.055c1.682,0 3.265,0.328 4.455,0.923c1.095,0.548 1.738,1.261 1.833,2.028c-0.512,3.882 -11.916,4.145 -12.585,-0.122l0.008,2.823c-0.02,3.861 12.485,4.206 12.573,0.076l0.012,-1.937l4.966,2.483l-22.023,11.103l-21.984,-10.992l5.008,-2.534l0.005,1.801c-0.02,3.861 12.486,4.206 12.574,0.076l0.017,-2.917c-0.253,4.015 -11.921,4.336 -12.599,0.018l0.002,0.705c-0.031,-0.127 -0.046,-0.255 -0.046,-0.383c0,-0.807 0.614,-1.614 1.842,-2.228c1.19,-0.595 2.773,-0.923 4.456,-0.923c0.421,0 0.837,0.021 1.241,0.061l3.217,-1.627l0.005,1.842c-0.02,3.861 12.485,4.206 12.573,0.077l0.011,-1.928Zm-12.591,9.827l0.008,2.823c-0.02,3.861 12.485,4.206 12.573,0.077l0.018,-2.918c-0.254,4.015 -11.922,4.336 -12.599,0.018Zm23.33,-5.144c0,0.014 0,0.028 0,0.043c0,0.02 0,0.04 -0.001,0.06l0.001,-0.103Zm-23.318,-5.579c0.114,-0.721 0.722,-1.426 1.822,-1.976c1.19,-0.595 2.773,-0.922 4.456,-0.922c1.683,0 3.265,0.327 4.455,0.922c1.105,0.553 1.748,1.273 1.835,2.047c-0.555,3.835 -11.778,4.108 -12.568,-0.071Zm-0.013,0.099l0.001,0.315c-0.005,-0.054 -0.008,-0.108 -0.008,-0.162c0,-0.051 0.002,-0.102 0.007,-0.153Z" style="fill:#0051ff;"/></svg>